<?xml version="1.0" encoding="UTF-8"?>
<svg id="Layer_1" data-name="Layer 1" xmlns="http://www.w3.org/2000/svg" viewBox="0 0 3008.68 3008.68">
  <defs>
    <style>
      .cls-1 {
        fill: #fff;
      }
    </style>
  </defs>
  <rect class="cls-1" width="3008.68" height="3008.68" rx="496.34" ry="496.34"/>
  <g>
    <path d="M2070.79,354.27c.31.54-.68,3.03.31,4.16.7.8,2.57.18,2.69.34,1.73,2.45,2.05,4.95,3,7.5.64,1.73-1.63,3.74,3,3,.22.87-.22,2.13,0,3-2.76,2.32-1.89,3.56,1.5,3,.76,2.74.69,6.82,3,9-.49,2.86.12,3.51,3,3,.19,1.42-.28,3.21,0,4.5.7,3.24,2.24,10.01,6,9,.13.96-.16,2.06,0,3,.02.11-1.25.85-1.11,1.96.32,2.64,2.15,9.85,5.61,8.54.29,1.32-.31,3.22,0,4.5.84,3.48,1.21,11.19,6,10.5.15.94-.19,2.1,0,3,2.51,12.16,5.53,19.91,10.93,31.9,1,2.23.21,4.91,4.07,4.1.29,1.2-.37,4.08,0,4.5-.36,3.19-.19,3.36,3,3,.14.95-.16,2.07,0,3,1.75,10.07,5.85,14.36,9.29,22.96,11.65,29.06,21.19,57.7,32.03,86.47,1.15,3.06,5.65,6.12,6.36,8.64,1.22,4.33-.53,9.28.98,14.02,1.32,4.14,6.32,6.81,7.67,13.33,2.13,10.29.41,10.09,4.82,20.67s-2.05,11.49-1.22,17.56c.63,4.55,7.3,6.44,7.65,10.68.26,3.12-2.99,5.27-3.23,8.89-.36,5.49,3.53,13.84,3.25,19.51-.24,4.84-1.45,11.88-1.9,18.01-1.36,18.44-3.88,29.86-8.36,46.85-.98,3.71.66,10.2-1.02,12.51-1.17,1.61-4.97.61-5.43,2.3-.53,1.95.46,5.56-.25,8.49-.96,3.97-5.18,16.81-6.82,20.17-2.38,4.88-11.24,11.72-13.02,15.48-1.48,3.13-.45,7.71-3.07,10.43-2.2,2.29-6.29,1.59-8.89,4.61-3.21,3.73-4.5,12.6-6.77,15.73-2.68,3.69-11.92,7.46-15.19,10.31-2.71,2.37-5.72,9.34-8.94,10.65-3.05,1.24-10.15-3.18-12.8.62-1.78,2.56.08,8.03-.62,11.04-.55,2.38-15.08,5.53-2.3,16.07,8.34,6.88,19.68,8.56,26.22,12.78,3.92,2.53,6.81,10.32,10.57,11.93,2.92,1.25,6.13.16,8.98,1.58,5.21,2.6,22.39,20.24,27.36,22.81,1.9.98,4.8,0,7.14,1.11s3.87,6.27,6.69,8.32c7.93,5.75,7.02,5.93,13.27,11.48,10.25,9.11,29.79,18.65,40.68,29.08,3.01,2.88,6.05,9.28,9.07,11.93,4.32,3.79,10.95,4.59,14.21,6.79,2.23,1.5,3,6.5,5.96,9.04,3.9,3.34,10.61,4.94,15.93,9.57,6.82,5.95,13.89,15.78,20.89,22.61,11.94,11.64,24.53,24.15,36.34,34.92,3.02,2.75,3.83,8.82,5.81,11.43s8.01,4.95,11.2,8.29c19.52,20.43,36.23,45.89,53.94,67.57,26.74,32.73,46.58,67.48,65.95,105.05,2.45,4.75,5.61,11.03,7.47,13.84,14.52,21.9,23.8,43.55,33.98,67.7,34.12,80.92,52.96,163.49,22.58,246.65-6.99,19.15-37.75,55.55-56.65,64.6-4.8,2.3-17.37,3.93-20.04,8.46-2,3.4-3.26,16.83-3.8,21.7-2.89,26.06-3.69,38.58-11.3,63.7-26.8,88.54-76.36,143.21-152.06,194.51-6.08,4.12-8.73,8.81-12.2,11.73-2.5,2.11-13.02,5.72-16.31,7.69-13.5,8.11-24.72,17.49-39.97,23.03-2.88,1.04-10.07,1.22-10.9,1.86-3.48,2.68-1.48,16.78-3.36,22.89-1.32,4.29-5.21,8.12-5.71,10.92-.57,3.2,1.43,5.8.71,9.5-.51,2.61-6.03,4.64-6.48,8.36-.28,2.32,1.29,4.9.79,8.39-.15,1.05-5.92,16.7-6.77,18.82-1.7,4.21-9.96,10.85-11.5,18.68-.76,3.87.85,6.33-.09,10.15-1.34,5.47-9.14,10.75-9.53,12.91-.36,2.01,1.64,5.27,1.15,8.7-.17,1.19-6.57,21.94-7.1,23.03-1.51,3.09-8.34,6.66-10.06,10.94s-1.3,9.9-3.12,14.88c-1.74,4.77-5.31,7.38-6.83,11.17-4.23,10.6-2.91,6.66-8.07,14.43-2.33,3.52-1.83,8.96-3.5,13-8.79,21.25-28.58,51.49-43.01,69.49-3.55,4.43-3.98,10.81-6.81,15.69-4.41,7.62-15.41,16.57-20.99,23.26-.15.18-2.11-.46-2.67.25-.9,1.13.08,5.69-1.12,8.71-3.92,9.89-20.61,26.76-27.71,39.04-.21.37.21,1.1,0,1.5-2.65,1.51-11.27,5.98-12.74,7.51-1.69,1.76-2,5.66-3.75,8.25-2.37,3.49-7.5,6.67-10.51,9.74-4.81,4.9-10.13,13.22-15,19.5-1.13,1.45-2.45,2.3-3,3-3.02-.12-4.54,1.46-4.5,4.5-1.47,1.82-2.04,3.26-4.5,6l-18.61,13.58-5.39,10.42c-.46.17-1.1-.18-1.5,0-4.15,1.91-18.84,12.89-22.5,16.5-.98.96-2.05,2.02-3,3-3.19-.36-3.36-.19-3,3-.49.52-1.01.99-1.5,1.5-8.51.56-6.99,10.88-16.49,6-.05,2.09.35,4.41-.32,6.43-1.61,4.84-24.73,17.16-29.67,22.9-1.55,1.79-1.06,2.78-1.52,3.67-15.31,9.48-32.77,17.26-46.51,27.74-8.14,6.2-14.2,6.54-23.05,7.2-9.01.68-7.33,9.19-9.9,10.85-1.74,1.12-5.09.41-7.49,1.5-1.85.84-3.63,4-6.49,5.51-2.74,1.44-13.54,6.28-15.75,7.13-6.41,2.47-17.99,3.21-22.77,5.35-3.61,1.62-4.2,6.5-4.54,6.72-3.11,1.94-15.32-4.07-18,7.5-.92.18-2.09-.19-3,0-5.95,1.22-12.16,1.83-18,3.74-2.05.67-11.19,3.5-10.5,6.76-2,.31-4.23-.57-6,1.5-27.58,4.04-55.37,8.86-81.67,13.58-66.93,11.99-157.59,6.93-223.5-13.65-33.36-10.42-68.97-21.1-100.83-37.17-21.1-10.64-45.29-22.56-65.52-34.98-11.97-7.35-21.64-18.28-35.48-22.27-.38-.56-1.14-.97-1.5-1.5-8.11-12.19-33.17-23.84-44.91-35.34-1.79-1.76-1.82-4.74-3.77-6.73-3.97-4.06-17.25-10.39-23.33-16.42-.53-.52-.99-.93-1.5-1.5-1.04-1.16-.07-5.83-6-4.5-2.05-1.88-6.26-5.43-9-7.5.36-4.53-2.66-3.48-4.5-4.5-10.08-17.22-30.95-32.15-43.5-46.5-.46-.53-1.04-.96-1.5-1.5-16.94-19.82-34.02-48.99-52.5-66-.52-.48-.98-1.04-1.5-1.5-.03-4.2-2.93-10.17-7.5-10.5-1.27-2.42.2-1.55-3-4.5-2.62-7.78-8.58-20.6-16.5-24-.21-.39.21-1.11,0-1.5-6.07-11.3-13.02-30.6-22.5-37.5-.56-.41-.98-1.16-1.5-1.5-.83-5.01-3.43-11.55-5.73-16.02-10.84-21.11-23.27-41.46-33.56-62.44-14.22-28.97-25.22-61.06-36.08-91.42-8.64-24.16-16.19-46.75-23.17-71.33-8.62-30.34-23.38-78.36-25.66-109.06-.31-4.24,4.49-6.44-3.29-8.24-.04-.5.05-1,0-1.5-2.47-25.95-7.71-50.67-10.5-76.5-.16-1.47.14-3.02,0-4.5-1.36-14.73-5.24-33.41-5.69-47.26-.61-18.88-1.22-37.99-1.81-57.06-.09-2.88,1.52-6.02-3-5.18-.07-.99.06-2.01,0-3,3.93-5.36.19-12.87-.06-18.69-1.09-24.72,2.74-54.3.07-78.07-.42-3.68-2.69-11.04-4.99-13.77-.85-1.01-17.56-11.9-19.48-12.76-15.76-7.02-47.45-2.28-64.1,2.47-4.04,1.15-8.54,2.64-10.44,6.81-.47.11-1.02-.09-1.5,0-6.27,1.17-13.23,3.52-15,10.5-2.57,1.01-6.82,3.06-9,4.5-1.29-3.56-4.05.37-5.27,1.48-6.47,5.91-6.36,7.74-9.73,15.02-2.8,1.75-3.65.17-6.31,4.95-16.45,29.57-28.74,76.34-26.75,109.86,1.02,17.14,5.59,32.29,8.67,48.33.51,2.65.07,10.44.39,10.88.26.35,2.57-.36,3-.01.83.67,1.06,3.33,1.5,4.5,4.49,11.94,6.97,21.24,12.42,33.4,1,2.24.22,4.91,4.08,4.1.26.78-.26,2.18,0,3,1.51,4.87,12.35,22.45,15.85,26.9,2.09,2.65,4.46,5.77,8.15,6.1.24.35-.25,1.27,0,1.5-.13,2.99,1.45,4.6,4.5,4.5.17.46-.18,1.1,0,1.5,1.21,2.67,3.37,9.07,4.55,10.89,1.1,1.71,2.75.92,2.95,1.11.17.16-.43,2.05.37,2.57,1.42.92,4.09.29,5.52,1.24,3.21,2.14,4.79,6.52,9.11,6.69.69,1.13,1.01,2.16,1.5,3,2.52,4.33,3.9,9.49,10.5,9,1.59,2.35-2.22,1.11,3,3,.79,5.26,4.7,7.16,9,9,.43.19,1.11-.19,1.5,0l16.56,15.69c8.82,4.05,17.34,7.49,25.44,12.81.17.86-.04,2.02,0,3,.24,6.01-.31,10.79,0,16.5.05.99-.12,2.03,0,3-9.73,12.45-28.3,4.35-40.5,0-.78-.28-2.25.28-3,0-.05-4.73-3.93-4.98-7.5-6-.44-.13-1.01.11-1.5,0,.44-3.05.05-3.45-3-3-.14-.19-3.22-.87-4.5-1.5.14-3.01-1.49-4.5-4.5-4.5-1-.78-4.19-1.93-6-3,.54-2.78-.25-3.46-3-3-2.73-2.84-4.94-3.71-7.5-6-.2-.18.83-2.07-.91-3.15-1.94-1.21-4.84-.76-6.59-1.35-1.02-.34-2-1.05-3-1.5.36-3.19.19-3.36-3-3-.11-.51.15-1.09,0-1.5-2.44-6.7-2.86-4.62-7.5-7.5-1.53-.95-2.98-2.03-4.5-3-.59-5.71-5.27-6.85-9-9-1.01-1.75.05-4.89-4.5-4.5-.2-.43.23-1.36,0-1.5.36-3.19.19-3.36-3-3-1.59-4.63-3.51-5.52-7.5-7.5-.86-6.28-4.85-10.11-9.07-14.2-.81-.78-2.56-.49-2.93-.8-.43-.36,1.51-4.17-3-3-.1-.48.12-1.03,0-1.5-.77-3.07-.61-6.92-4.5-6-.17-.45.18-1.09,0-1.5-3.02-6.94-8.59-16.01-12.7-22.55-1.44-2.29-1.69-4.63-5.3-4.45-.36-1.14.41-4.04,0-4.5.36-3.19.19-3.36-3-3-.81-2.4-1.27-7.19-1.5-7.5.06-3.55,1.01-5.2-3-4.5-.06-.52.14-1.42,0-1.5.36-3.19.19-3.36-3-3-.48-2.93-.79-4.61-1.5-7.5s-1.95-5.7-2.65-8.6c-1.06-4.39,2.05-12.21-4.85-12.4-.1-.48.1-1.02,0-1.5-.95-4.33-.57-11.97-4.5-10.5-.16-.93.12-2.04,0-3,2.76-2.32,1.89-3.56-1.5-3-.13-.96.09-2.02,0-3,.94-1.29-1.08-14.36-1.53-14.99-.21-.29-2.13.1-2.97,0-.34-4.39.05-9.06,0-13.5,8.01-.64,7.35-14.21,0-15-.02-1,.02-2,0-3-.04-2.01.02-5.02,0-7.5-.06-8.98,0-18.02,0-27,2.36-.99,2.36-6.51,0-7.5.07-.98-.15-2.09,0-3,4.52.94,2.79-2.24,3-6,.08-1.49-.11-3.02,0-4.5,4.01.7,3.06-.95,3-4.5.29-.41-.02-5.91,0-7.5,3.09-2.69,4.3-6.51,4.5-10.5.05-1-.05-2,0-3,2.34-2.32,2.03-6.04,3-9,1.4-4.27,2.09-9.38,3-12,4.89.82,3.59-.21,5.2-2.99,3.75-6.49,6.02-13.91,8.3-21.01.15-.45-.15-1.05,0-1.5l12.74-12c1.41-9.47,6.11-9.65,11.33-15.74,1.65-1.92,1.13-4.84,1.43-5.26.16-.22,4.27-.53,4.5-3,.39-.15,1.1-1.04,1.5-1.5,8.89.31,6.97-3.51,9-7.5.32-.64,1.25-1.05,1.5-1.5,7.24-5.86,34.43-15.14,35.74-23.57.54-3.44-2.22-6.79-2.63-10.3-1.99-17.01-3.56-33.54-4.52-50.96-.15-2.79.32-5.62-3.09-6.67-.07-1.49.06-3,0-4.5,2.37-1.54,1.66-5.82,1.6-8.31-.23-8.77.58-15.32-.1-24.69-.1-1.42.29-4.48,0-7.5,2.48-1.9,2.48-8.6,0-10.5.05-1.49-.14-3.03,0-4.5,5.68.77,2.19-8.93,3.04-12.47.26-1.09,2.54-.86,2.89-2.11,1.28-4.58.55-12.07,2.26-16.98,1.32-3.81,5.69-5.75,6.51-8.49,1.64-5.49-.08-17.72.3-24.45.06-.99-.09-2.01,0-3l6.84-11.91c5.87-4.32,5.77-11.22,6.66-18.09.25-1.91-.27-4.11,0-6,.84-.1,2.76.29,2.97,0,.44-.62,1.99-11.63,3.03-14.99,2.74-8.86,6.4-15.27,12-22.5.13-.17,2.14.46,2.69-.25,1.12-1.46-.46-4.94.64-6.96.41-.76,3.06-.71,4.17-3.29.17-.39-.14-1.01,0-1.5,7.28-2.87,4.8-8.4,6.81-13.44.76-1.92,10.59-17.67,12.69-21.06,3.51-5.65,3.47-5.05,6-12,4.25-.26,6.4-3.36,6-7.5.7-.57.92-.75,1.5-1.5,2.2-.01,3.76-.91,4.5-3,2.06-.81,2.63-4.02,3-6,4.53.27,4.56-4.25,6-7.5,3.35-2.28,7.31-6,9-9,8.2-.94,13.12-2.98,10.51-12.51-.44-1.61-2.92-.86-3.01-.99-.33-.47-3.77-8.8-4.5-10.5,2.19-1.38,1.92-6.13,1.63-8.34-.36-2.77-2.81-1.98-3.1-3.19-4.32-18.33-.24-48.95,1.47-67.97.04-.5-.05-1.01,0-1.5,5.06,1.34,2.6-6.06,3-10.5.04-.5-.05-1.01,0-1.5,3.52-1.45,3.63-5.75,4.5-9,.12-.47-.13-1.04,0-1.5,9.24-2.13,7.24-8.76,9.84-13.41,5.02-8.98,7.86-7.95,9.66-19.59.15-.95-.17-2.07,0-3,8.85-1.74,10.21-8.49,13.5-15,.2-.4-.21-1.11,0-1.5,8.46-1.55,11.01-9.45,15.98-14.83,10.09-10.91,20.79-22.61,30.59-32.32,37.48-37.1,86.31-70.48,131.17-98.36,34.36-21.36,70.75-41.29,107.31-57.67,5.85-2.62,18.96-7.23,23.01-10.02,3.24-2.24,4.29-6.34,7.29-7.71,4.49-2.06,11.87-.91,17.95-3.05,20.48-7.22,43.48-19.62,63.84-27.66,39.09-15.45,77.52-29.27,118.06-40.94,52.65-15.16,104.32-23.55,158.39-30.58,4.27-.56,8.71-4.86,12.81-5.34,11.17-1.28,22.65-1.56,34.28-3.09,56.03-7.36,118.01-14.34,175.58-13.55,23.57.32,47.36,3.28,70.74,4.08,15.94.55,41.08,2.69,56.4,6.9,2.28.63,4.12,3.45,6.7,3.94,3.43.64,6.38-1.73,9.81-1.08,1.54.29,16.01,5.47,19.09,6.55,9.7,3.4,26.59,15.4,35.93,8.91,5.29-3.67,2.31-12.7,3.72-18.78,2.29-9.92,11.16-20.53,13.35-28.65,3.33-12.35,4.89-28.63,10.77-40.23,1.22-2.41,5.58-3.06,7.18-6.42,1.88-3.94-.92-6.67.12-10.15,1.11-3.7,5.16-4.15,6.6-7.03s1.12-7.85,2.31-11.2c6.69-18.95,18.14-34.73,27.68-51.82,2.45-4.4,3.49-12.15,5.69-16.81,4.29-9.09,15.72-22.1,19.03-30.47,1.63-4.12.37-8.15,1.89-11.61,1.2-2.73,7.07-5.64,8.61-9.39,1.3-3.17.56-6.72,1.53-8.97,7.01-16.25,16.28-31.24,22.87-47.63,3.97-9.86,3.44-22.59,17.17-26.32,2.73-.74,12.57-.9,13.55.79ZM2110.18,777.64c2.38-4.32,10.84-13.99,12.73-19.49,5.59-16.19,9.54-67.33,6.35-83.61-.65-3.33-3.8-4.21-4.46-7.54-1.54-7.87.04-20.9-1.61-29.89-2.1-11.43-11.03-23.86-13.05-31.95-1.76-7.01-2.41-13.03-4.51-20.99-7.61-28.9-14.85-58.01-25.17-85.83-3.51-9.46-4.01-17.5-5.83-27.17-1.71-9.08-8.42-33.97-11.79-42.21-.92-2.24-5.07-9.36-7.78-8.69-6.18,1.53-10.97,30.06-13.16,36.37-15.01,43.4-36.39,86.39-52.89,130.11-4.43,11.75-5.55,22.58-11.72,34.06-.45.83-3.13,1.06-3.77,2.9-1.35,3.86.21,12.16-.6,17.45-1.38,9.02-8.21,17.65-9.83,23.17-2.09,7.14-.25,20.63-4.83,29.3-.88,1.67-3.6,1.68-4.24,3.58-1.5,4.49.4,13.66-.3,19.24-.29,2.29-2.93,4.11-2.93,6.07s2.48,3.73,2.93,6.07c1.94,10.18-4.93,21.76-4.6,28.41.19,3.84,3.83,7.38,4.53,12.15,1.09,7.47-.97,16.51.21,23.79,2.25,13.91,27.51,44.8,41.81,48.19,5.93,1.41,16.42,3.78,22.22,4.78,10.9,1.88,11.9-2.55,19.23-4.06,4.38-.91,8.3.49,13.54-1.46,17.8-6.62,46.81-36.47,56.82-52.68,2.64-4.27,1.46-7.8,2.71-10.07ZM1824.79,1011.27c-.51.1-1.1-.14-1.5,0-6.89,2.49-10.21,8.88-15.79,13.46-8.2,6.73-13.87,9.59-20.21,18.04-.41.55-1.1.96-1.5,1.5-2.81.52-7.51,2.62-9.48,4.44-1.49,1.37-.83,2.83-1.02,3.06-.42.54-1.07.95-1.5,1.5-12.02,7.08-24.69,13.86-36.51,21.24-2.99,1.87-10.53,6.75-11.49,10.26-.42.17-1.06-.17-1.5,0-6.81,2.54-13.4,3.57-19.09,5.66-9.71,3.58-25.11,17.82-35.4,23.1-45.29,23.22-105.92,42.04-154.37,57.2-2.48.77-4.89.35-4.14,4.04-1-.02-2,.02-3,0-21.2-.38-51.17,12.48-74.33,17.92-13.68,3.22-30.72,7.39-44.93,9.14-2.81.35-6.08-1.88-5.24,2.94-2.49.11-5.01-.06-7.5,0-.18,0-1.02-1.47-3.28-1.27s-12.08,2.84-10.22,5.77c-.94.16-2.06-.16-3,0-8.15-5.02-17.55,1.54-25.11,2.64-5.15.75-10.48,1.15-15.39,1.86-2.36.34-5.14-.34-7.5,0-16.07,2.35-32.64,6.04-48.77,7.54-2.85.27-6.06-1.78-5.23,2.96-1.5.04-3-.04-4.5,0-35.2.88-73.44,6.07-110.32,7.5-2.89.11-6.02-1.54-5.18,3-12.97.15-26.03.01-39,0-2.98,0-7.56.02-10.5,0-2-.01-4,.02-6,0,.83-4.7-3.92-4.46-3,0-3-.03-6,.04-9,0,.84-4.53-2.29-2.9-5.18-3-10.19-.34-22.63-1.02-32.32,1.5-1-.03-2,.04-3,0,.84-4.55-2.29-2.87-5.18-3.01-11.82-.55-23.49-1.14-35.32-1.49-1-.03-2,.03-3,0-13.36-4.82-27.5-3.26-41.27-4.48-8.87-.79-13.97-6.65-23.98-.02-4.98,3.3-3.79,5.24-5.25,9-4.63,11.95-14.39,32.1-16.5,43.5-4.98-.81-2.49,4.3-3,7.5-1.2,7.42-3.59,8.34-6,15-5.77-1.14-2.83,6.16-3,7.5-.35,2.69-.76,4.89-1.5,7.5-4.83-.95-2.47,2.43-3,6-.94,6.29-2.12,9.3-4.5,15-1.98,4.75-3.61,3.68-4.5,12-.1.98.06,2.01,0,3-5.1-1.23-2.44,4.83-3,9-.07.49.06,1.01,0,1.5-4.78-.94-2.52,2.38-3,6-.52,3.91-.23,6.98-3,10.5-.15.2-2.66-.8-3.07.94-.7,2.94.5,7.52-.29,11.46-7.38,36.86-23.26,82.94-25.19,120.29-.35,6.83-1.24,16.58,7.18,18.42,8.33,1.83,11.62-2.67,13.87-10.11.25-.81-.23-2.13,0-3,4,.59,5.89-5.61,6-9,4.4-3.71,6.74-6.3,10.5-10.5,4.14.4,7.24-1.75,7.5-6,.48-.13,1.07.15,1.5,0,24.33-8.3,54.78-13.41,81.77-14.98,8.08-.47,55.68,1.38,57.74-1.53-2.64-11.07-12.39-14.86-9.01-28.48,1.13-.76,2.02-2.04,3-3,5.92.65,10.29-3.59,15.88-4.37,46.58-6.49,104.4.15,152.12-.13.5,0,1,0,1.5,0,.24,7.4,12.38,1.43,17.18,1.46,5.62.03,15.93,2.49,22.11,3.49,20.71,3.33,43.41,5.79,64.58,10.43,23.13,5.06,53,21.73,74.6,6.29,1.37-.98,1.23-3.38,1.53-3.67,2.14-2.08,2.92-1.51,6-6,4.68-.25,4.72-2.63,6-6,.7-1.84.75-4.28,1.5-6,7.89-1.74,9.19-14.75,12-21,.46-1.02,1.04-1.98,1.5-3l12.96-14.83c7.06,4.75,14.21,2.4,21.54,5.83.16.47-.18,1.1,0,1.5,2.18,5,8.53,12.09,8.78,13.05.8,3.15-2.22,6.22-2.48,9.03-.32,3.55-.28,12.62-.3,16.91-.01,2-.05,4.01,0,6-2.08,2.57-1.22,5.86-2.34,8.91-3.73,10.21-12.19,19.77-15.33,32.7-.69,2.83-1.69,5.68,2.66,4.9,0,.48-.07,1.03,0,1.5.3,1.96,8.02,19.72,8.96,20.31,4.53,2.81,8.56-1.75,10.54-5.31.63-1.13,1.02-2.11,1.5-3,8.96-3.94,14.66-19.27,15-28.5.04-1-.02-2,0-3,2.69-5.04,5.78-11.95,7.4-17.35,1.53-5.11.48-17.24,6.86-17.2,1.7.01,10.59,7.58,11.6,9.44,3.17,5.83,3.24,20.62,2.73,27.43-.77,10.39-12.1,36.43-18.04,44.97-1.81,2.61-14.14,12.14-11.37,15.75,3.63,4.73,20.72,3.23,25.62,0,6.31-4.15,6.28-20.89,8.19-28.56.2-.82,1.31-4.36,1.5-4.5,1.58-1.21,1.75,2.47,3-3,.11-.47-.09-1.02,0-1.5,4.66.94,4.36-5.53,4.5-9,.59-.93.88-2.09,1.5-3,5.03,1.02,5.43-7.05,6-7.5,11.55-9.02,37.55-17.89,52.5-19.5,1.47-.16,3.03.16,4.5,0,10.92-1.16,21.99.43,32.05-4.78,2.13-1.1,4.74-.62,3.95-4.22.45-.13,1.01.11,1.5,0,5.65-1.23,1.87-1.81,3-3,1.01-1.07,3.16-1.96,4.5-3,3.76-2.92,2.45-2.31,4.5-4.5.24-.25,1.2.24,1.5,0,.9-.73,1.82.14,4.5-3,1.66-1.94,2.55-2.5,3-3,3.06-1.02,8.23-2.27,7.5-6,.84-.25,2.27.28,3,0,12.42-4.7,23.76-12.41,36.02-17.23,10.23-4.03,22.65-5.04,31.48-11.27.98-.11,2.01.08,3,0,13.28-1.11,29.57-3.85,42.01-8.24,4.55-1.61,9.46-4.1,13.49-6.76,1.48-.1,3.03.16,4.5,0,9.97-1.1,20.29-1.88,30-4.5,1,0,2-.04,3,0,1.47.06,3.04.1,4.5,0,.98-.07,2.08.15,3,0,3.13-.51,5.4-2.4,8.33-2.92,4.69-.83,12.46,2.23,11.17-3.08,1-.01,2,0,3,0,1.27,0,3.25,0,4.5,0,1,0,2,.02,3,0,24.66-.57,54.44-7.31,80.27-10.48,2.66-.33,5.17-.4,6.73-3.02,1-.04,2,.02,3,0,10.35-.22,21.67-1.53,32.16.09,2.55.39,22.86,8.64,23.23,9.86,1.08,3.58-5.19,9.8-2.11,17.01.56,1.3,2.97,2.32,3.5,4.11,2.47,8.35-11.98,10.82-16.22,14.75-3.65,3.38-12.17,14.01-14.8,18.1-1.62,2.53-2.38,2.23-4.77,3.58-1.49.06-3.03-.14-4.5,0-19.42,1.81-41.25,4.42-61.5,6-.99.08-2.01-.07-3,0-11.95.89-28.4-.88-38.2.02-2.94.27-5.17,3.87-9.16,4.44-5.48.8-10.57-1.94-16.36-1.52-18.83,1.38-57.02,5.46-74.26,11.33-1.62.55-6.03,1.68-6.01,3.71,8.83,1.02,20.12,5.19,28.49,1.52.99.05,2.01-.08,3,0,2.3.19,6.34.72,7.5-1.5,8.57,1.16,16.84,1.41,25.5,1.5,2.3.02,7.07,2.59,10.5-1.5,1.5-.06,3.01.07,4.5,0-.67,5,1.81,2.47,4.51,2.28,8.62-.62,16.88-.66,25.49-.78,1-.01,2,0,3,0,3.5-.01,7.01.06,10.5,0,1.5-.03,3.01.07,4.5,0,2.19-.11,4.29.42,6-1.5,1,.01,2-.02,3,0,7.56,4.42,16.06,1.41,23.19,1.43,7.83.02,16.24.13,23.31.07,1,0,2,0,3,0,.26,0,2.02,2.12,3.47,1.44l32.53-2.94c1.47.15,3.03-.15,4.5,0,11.02,1.15,15.4,1.5,26.25,1.5h27c2.68,0,8.86,4.18,12.75,0,1.49.1,3.01-.08,4.5,0,3.92.2,21.79,1.16,22.5-2.28.19-.91-5.7-9.03-6.7-9.83-1.54-1.23-3.07-.96-3.79-1.39-1.63-4.63-3.52-13.03-9-13.5-.21-.39.21-1.12,0-1.5-4.76-8.4-18.66-19.56-25.46-27.79-5.8-7.01-9.82-15.86-14.36-21.64-1.67-2.13-8.93-5.6-9.35-6.38-1.16-2.13.57-5.89-1.07-8.7-.73-1.25-4.83-2.91-6.75-5.24-16.52-20.01-31.6-48.23-47.04-69.96-1.52-2.13-2.16-4.46-5.46-4.29-.19-.41.19-1.09,0-1.5-32.52-69.58-69.91-138.6-76.58-216.67l-5.92-14.33c-.11-.98.11-2.02,0-3,2.07-1.83,2.09-4.1,0-6-.05-1,.03-2,0-3,2.53-4.61,2.53-13.28,0-18,.07-1.98.08-4.02,0-6-.31-8.17-6.72-18.79-12-7.5ZM2041.88,1768.41c1.21-2.98-.28-6.39.49-9.3,14.51-54.83,27.76-106.87,37.61-163.39,3.56-20.41,9.8-49.22,4.86-69.74-1.77-7.37-10.61-14-17.14-17.36-16.02-8.26-25.64-5.95-42.7-6.79-21-1.03-42.14-1.62-62.88-.19-8.29.57-23.21-3.39-31.62-3.03-6.33.28-15.53,4.34-23.59,2.94-2.06-.36-4.1-2.71-6.51-2.82-3.37-.16-5.15,3.08-7.07,2.79-1.73-.27-3.19-2.84-7.78-2.91-7.55-.12-17.24,3.91-28.59,3.25-34.61-2.02-63.89.6-97.43.05-6.46-.11-16.39-3-22.83-2.72-2.35.1-4.4,2.56-8.63,2.76-5.85.28-10.54-2.8-16.47-3.23-9.44-.67-17.64,3.74-27.12,3.1-14.53-.97-29.63-2.95-44.96-3.03-8.27-.04-27.77-1.05-33.78,5.19-1.84,1.92-1.02,5.04-2.22,6.78-1.09,1.58-4.85,1.85-6.87,3.63-4.35,3.82-12.71,18.56-17.91,24.15-5.91,6.35-8.62,8.5-17.55,5.58-9.41-3.08-9.35-11.61-7.56-20.25.98-4.74,10.45-14.48,2.65-18.36-3.9-1.95-9.29.24-13.03,1.98-1.51.7-13.14,10.34-13.61,11.14-.71,1.18-4.71,18.84-4.89,21.35-2.07,28.91,9.03,92.61,16.98,121.12,6.7,24.01,13.63,8.9,28.77,7.14,37.45-4.36,75.46-2.66,112.56-5.94,58.07-5.13,115.89-11.8,173.95-13.51,9.5-.28,17.84-5.12,25.5-6.04,8.23-.99,30.75-.96,38.91.17,1.88.26,16.83,5.16,17.39,5.89.33.44-1.72,5.86-1.63,8.21.14,3.65,2.64,6.04,3.12,9.2,1.42,9.43-19.29,8.35-22.55,10.27-3.85,2.27,1.79,5.16,1.43,7.35-.1.6-6.29,9.88-6.88,10.02-5.73,1.37-13.05-1.49-17.91-1.42-23.77.34-46.98,4.12-70.35,4.47-17.59.26-34.66,3.13-52.47,2.88-4-.06-9.08-3.39-12.81.73-1.57,1.74-2.34,19.35-2.67,24.02-1.3,18.36-4.73,39.29-8.14,58.16-1,5.52-11.69,20.71-9.47,25.08.42.83,1.49,1.85,2.33,2.26,4.7,2.27,38.94.6,47.3.69,47.75.48,96.16.08,143.94-.08,34.82-.11,66.7,7.71,93.76-20.53,1.84-1.92,15.57-20.43,16.08-21.7ZM2256.79,1503.27c-3.52.29-12.98,1.58-12,6-.98.08-2.04-.13-3,0-22.33,3.14-33.1,8.28-54,17.25-18.39,7.9-31.79,9.63-44.17,27.83-11.75,17.28-10.39,23.86-14.72,42.28-15.54,66.14-27.97,135.35-50.96,199.54-1.35,3.76-13.02,26.75-15.5,29.5-.49.55-10.89,8.22-11.58,8.65-23.07,14.39-56.86,8.52-84.38,9.38-109.81,3.45-219.41,1.28-329.88,3.12-18.31.31-40.4,1.39-57.84-3.79-13.14-3.91-35.65-25.49-40.82-38.68-2.67-6.81-2.88-15.92-4.88-22.12-9.3-28.82-20.29-57.12-30.02-85.48-5.88-17.15-11.15-43.84-20.47-59.03-7.27-11.84-33.67-21.8-35.82-3.25-1.5,12.92-.34,30.8-.91,44.78-4.49,111.77-6.6,223.26-8,334.82-.05,4.02-1.76,7.51-1.61,11.85.7,20.3,18.56,14.1,31.93,20.7,1.94.96,15.48,10.23,16.92,11.58,5.95,5.61,14.42,24.21,11.01,32-7.63,17.42-28.39,19.73-45.2,17.15-1.15-.18-19.16-7.16-20.46-7.98-5.48-3.47-17.12-15.63-20.24-21.76-1.31-2.57-4.91-13.01-5.3-15.7-5.95-40.67,6.18-92.96,1.35-134.97,4.97-64.06,2.63-128.41,4.49-192.01.12-4.14,3.99-17.22-.7-18.67-7.85-2.42-6.12,12.1-7.06,15.41-8.28,29.03-17.2,66.99-30.9,93.6-17.49,33.98-40.36,28.16-74.5,28.98-16.93.41-36.98,1.89-54.04,1.6-6.44-.11-14.61-3.16-20.99-3.23s-12.8,3.26-18.06,3.17c-3.98-.06-6.45-3.06-10.38-3.1-54.39-.48-109.65,2.3-163.55,1.65-22.37-.27-59.05,1.09-79.57-1.53-4.73-.6-6.6-3.8-12.68-4.57-1.43-.18-3.12.23-4.5,0,.03-.83.36-2.48-.17-2.79-2.25-1.31-10.59-2.75-14.83-4.71-1.5-.69-2.97-2.13-4.5-3-.43-4.34-6.57-7.64-10.5-9-.55-.5-.99-1-1.5-1.5l-21-33c-.1-.48.11-1.02,0-1.5-4.84-21.46-8.99-44.74-12.79-65.96-4.26-23.8-11.86-60.28-11.28-83.33.07-2.89,1.63-6.03-2.93-5.21.04-1-.05-2,0-3,.24-4.38,1.68-15.21-3-13.5-.04-.49.09-1.03,0-1.5-1.07-5.65-2.05-3.54-6-4.5-.88-.21-2.74.28-3,0-1.37-1.49,3.12-2.36-4.5-3-1.4-.12-3.1-.11-4.5,0-1.28.1-3.25-.5-4.23.21-4.07,2.95,2.18,57.2-3.26,66.54l3,38.25c0,1-.01,2,0,3-5-.67-2.47,1.81-2.28,4.51,7.78,108.24,19.59,205.51,52.23,307.79,1.31,4.11,5.73,9.43,6.7,14.3,1.72,8.63.3,6.67,3.78,14.27,4.66,10.16,7.18,20.98,10.85,31.11,12.02,33.11,28.16,64.35,43.34,96.22,3.69,7.74,6.01,16.88,9.2,23.73,1.95,4.2,9.27,8.46,11.03,11.47,14.7,25.28,28.27,51.64,44.44,75.59,24.11,35.7,54.22,75.04,86.94,106.46,4.35,4.18,15.15,10.69,18.77,15.04,1.14,1.37-2.56,1.8,3,3,.49.11,1.05-.12,1.5,0-.41,5.16,4.48,4.75,6,6,1.62,1.33,3.38,2.09,4.5,3,.22.18.21.84,3,3,3.63,2.81,6.24,5.85,10.5,9,.36,5.42,4.18,5.71,7.5,7.5,3.6,5.87,2.8,2.89,7.5,6,.35.23,1.29-.25,1.5,0,.24.29-.53,2.06.23,2.8.69.66,2.45-.04,2.77.2,4.51,3.29,6.45,6.98,12,10.5,1.9,5.16,11.61,9.55,16.5,12,.77.39,2.58,1.33,3,1.5-.93,4.34,4.28,3.26,7.5,4.5,4.76,4.81,6.96,5.16,10.5,7.5.22.15,1.89,1.96,3,3,.23.22,2.82,2.81,3,3,.22.24-.18,1.01,0,1.5,2.13,5.75,1.53,1.52,7.93,3.3,2.67.74,5.22,2.96,8.57,4.2.45.17,1.08-.17,1.5,0-.18,5.18,5.43,4.82,9,6,.81.27,2.24-.28,3,0,2.19,8.11,15.52,9.94,22.5,13.5.91.47,2.36.96,3,1.5.78.66-2.11.58,3,3,1.7.81,2.83,1.01,4.5,1.5.16.05,1.22.93,3,1.5.81.26,2.19-.26,3,0-.74,4.07,9.76,6.44,13.5,7.5.84.24,2.18-.25,3,0l9.73,6.02c6.91,2.12,13.39,5.27,20.27,7.48,1.95.63,4.05.88,6,1.5-.86,3.49,7.53,5.44,9.68,6.07,6.84,2,24.26,8.11,29.32,8.93,1.35.22,3.03-.09,4.5,0,16.52,4.06,34.03,7.92,51,10.5,1.88.29,4.11-.27,6,0,13.29,1.92,25.12,4.26,39,4.5,1,.02,2,0,3,0,5.82,7.88,15.55,2.99,23.18,2.93,26.82-.21,55.78,1.97,82.17-1.69,11.88-1.65,28.95-9.36,41.13-9.74,3.42-.11,7.8,2.65,10.1,2.17,6.96-1.46,21.67-10.11,29.36-12.48,6.33-1.95,14.76-2.5,21.14-4.37,4.03-1.18,11.98-8.49,16.06-9.54,4.28-1.11,7.67,2.11,11.95.26,2.16-.94,2.4-3.71,4.29-4.84,8.13-4.85,16.77-5.6,26.11-12.2,1.5-1.06,2.25-1.09,4.5-3,3.1-.01,5.95-1.14,8.63-2.57,15.1-8.04,31.34-16.42,46.81-25.25l18.06-14.19c2.63-1.21,1.89.08,4.5-3,2.18-.71,6.43-1.61,8.02-2.91s.81-2.9.98-3.09c2.78-2.99,2.71-2.64,6-4.5,2.68-1.51,8.29-1.73,7.5-6,.83-.25,2.17.25,3,0,5.55-1.63,5.36-4.45,9.1-6.65,9.98-5.86,11.77-2.55,17.9-15.85,5.6-2,1.7-1.63,3-3,.95-.99,3.18-2.04,4.5-3,4.31-3.13,2.55-.09,6-6,9.37-6.07,14.88-8.84,21-18,1.7-1.17,3.42-.78,6.09-3.69,2.21-2.41,2.05-4.08,2.91-5.31.39-.57.5-1.7,1.5-3,12.33-2.33,20.48-15.11,25.5-25.5.49-.52,1.02-.99,1.5-1.5,7.26-1.38,11.19-8.05,12-15,3.56-3.25,3.93-1.4,7.5-7.5,2.63.14,7.64-4.87,7.5-7.5.87-.21,2.09.19,3,0,7.26-1.53,9.16-13.76,13.73-20.02,4-5.47,5.33-3.39,8.77-11.48.19-.45-.23-1.37,0-1.5,2.12-1.23,2.3,2.31,3-3,.13-.96-.17-2.09,0-3,4.05.75,4.66-4.58,6-7.5.19-.41-.19-1.1,0-1.5,4.98-.57,7.03-6.57,9-10.5.21-.42-.24-1.36,0-1.5.59-.34,2.68.38,3,0,.41-.49-.29-3.3,0-4.5.08-.32,1.13-1.35,1.5-1.5.81-.33,3.1.65,4.22-.22.98-.76,1.09-4.5,2.12-6.17,3.66-5.92,20.62-26.35,21.38-28.14,1.23-2.88.29-6.1,1.55-8.95,1.18-2.68,5.1-8.64,7.45-13.55,5.98-12.5,16.74-25.29,22.04-36.43,1.35-2.83,1.32-6.99,2.61-9.05s6.1-1.6,8.03-5.84c3.35-7.34,4.12-21.52,6.62-27.84,2.98-7.53,15.39-23.75,17.8-31.74,2.6-8.63,3.88-18.4,7.44-27.06,2.1-5.11,6.79-8.57,8.73-13.77,3.14-8.4,3.54-20.11,5.97-28.53,6.61-22.87,12.61-39.55,17.84-63.16,1.05-4.73,5.55-7.19,5.69-14.56.02-1,0-2,0-3,6.25-4.07,14.64-2.63,20.88-5.37,8.57-3.76,11.84-18.7,25.61-12.63l.24-5.77c6-1.01,10.49-7.54,15.41-9.35s10.44-.46,14.34-2.16c3.7-1.62,3.89-6.72,6.07-8.93,5.48-5.56,20.31-7.11,22.45-15.8.39-.2,1.1.2,1.5,0,10.37-5.26,15.06-10.29,22.5-16.5,1.35-1.13,3.17-1.86,4.5-3,2.13-1.82.46,1.43,3-3,.29-.51,1.12-.93,1.5-1.5,3.57-1.62,11.4-4.19,14.15-6.16,2.47-1.77,1.79-3.61,2.35-4.34,1.73-2.24,1.83-2.69,3-4.5,4.56-.94,9.62-6.06,10.5-10.5,1.47-1.04,3.01-1.99,4.5-3,14.27-9.73,17.95-20.88,28.48-33.34,2.05-2.43,14.48-13.18,14.79-14.16.7-2.27-.27-4.94.21-6.94.65-2.72,12.42-18.13,14.32-25.02,9.79-35.5,19.16-72.22,15.69-110.29-2.49-27.33-13.91-47.33-24.2-71.8l-11.79-12.96c-.87-1.57-2.17-2.92-3-4.5-4.16-7.87-1.38-7.01-9-13.5-1.64-1.4-3.28-3.52-4.5-4.5-1.75-3.39-5.13-10.32-7.45-12.8-2.79-2.98-11.75-8.32-15.05-11.2-.56-.49-.99-1.04-1.5-1.5-.29-.26-.01-2.21-.84-2.92-6.27-5.31-12.56-7.7-20.16-10.58-.39-.56-1.12-.96-1.5-1.5-.33-.48-.02-2.14-.79-2.95-2.76-2.89-16.92-6.45-21.71-7.55-.89-.2-2.09.19-3,0,.7-5.98-4.88-2.93-6-3-.99-.06-2.02.1-3,0,1.3-4.11-12.6-5.72-16.5-6-2.29-.16-5.23-.19-7.5,0ZM1319.68,1648.29c7.16,3.39,9.61-3.16,13.88-3.99,13.38-2.63,32.91,5.75,40.48-12.02,3.16-7.41,1.3-14.26,2.6-21.4,1.49-8.12,9.1-18.37,10.05-24.45,1.34-8.59,1.39-16.01,3.01-25.47,2.34-13.66-3.18-13.25-7.74-22.1-2.01-3.89-2.34-11.16-6.44-14.56-5.08-4.21-39.06-6.39-47.91-7.59s-14.12-4.27-25.49-2.86c-17.98,2.24-38.42,5.26-57.12,2.97-4.4-.54-7.33-3.27-11.98-3.22s-6.91,2.9-11.89,3.3-9.35-1.59-13.43-1.47c-67.4,1.91-134.55,1.53-201.18-1.76-4.39-.22-14.03-1.43-16.34-1.35-3.79.12-7.84,3.09-13.66,3.1-8.51.02-17.78-2.95-27.06-1.7-3.17.43-27.35,7.97-31.03,9.47-6.31,2.57-14.4,11.09-17.26,17.25-18.21,39.22,3.46,126.39,11.24,169.47,2.62,14.51,4.25,27.69,7.63,41.72,2.12,8.81,4.77,20.16,8.46,26.12,1.78,2.87-.09,6.69,1.09,8.75,1.69,2.96,14.55,15.67,18.47,18.27,10.34,6.85,10.35,4.4,20.96,6.04,24.67,3.81,51.39,3.62,76.51,3.13,6.56-.13,10.44-3.59,16.55-3.31,6.36.29,13.09,5.43,21.01,4.83,2.75-.21,2-2.87,3.22-3.14,14.43-3.21,43.39-.16,58.31,1.49,6.14.68,12.27-2.44,17.91-3.03,4.3-.45,19.06,1.75,20.24-2.31,1.01-3.48-11.01-16.85-13.13-21.28-6.4-13.36-3.23-21.24-4.99-34.01-.69-5.04-5.27-11.27-5.22-15.13.11-8.24,1.38-16.81.71-25.34-.29-3.69-1.47-18.15-2.73-19.79-4.5-5.88-41.47-4.54-50.37-5.13-4.63-.3-8.89-2.54-13.53-2.97-25.33-2.34-46.86,3.57-72.8-5.21-3.93-1.33-12.16-8-10.18-12.51.31-.71,10.38-9.48,11.8-9.97,8.85-3.04,11.35,2.32,17.03,2.13,3.9-.13,9.24-3.72,13.78-4.32,10.47-1.39,19.79,1.19,32.21-.8,13.75-2.21,10.94-1.55,24.69-.86,13.8.7,26.41-1.45,40.55-1.42,16.88.04,34.53-4.21,50.91-3.04,29.78,2.12,60.92-1.71,91.59-1.58,4.69.02,9.23,2.08,13.44,1.71s6.74-4.35,11.73-3.15c1.04.25,1,2.33,1.4,2.52ZM1335.3,1789.32c3.16-4.6,1.12-8.88,2.34-13.45,4.93-18.58,11.59-37.29,15.75-56.25,5.82-26.57,1.3-18.31-21.32-19.84-11.18-.76-25.2-3.67-35.96-2.96-2.77.18-4.84,2.7-7.63,2.93-7.68.62-29.92-10.47-33.36,5.61-1.72,8.01-1.83,19.6-3.66,27.84-1.87,8.43-8.22,18.95-9.85,24.65-2.99,10.46-1.23,19.4-7.23,31.77-2.27,4.68-12.73,16.02-10.42,19.71,3.43,5.48,13.29,1.49,18.03,1.4,20.54-.39,40.71,2.8,61.17-.33,13.38-2.05,24.89-10.51,32.15-21.07ZM1588.7,1796.34c13.66,17.36,20.49,13.24,40.21,14.55,13.21.87,18.03.61,31.64-.1,5.16-.27,28.17,1.27,30.1-1.41,3.49-4.85-3.51-9.68-4.97-13.24-7.44-18.09-10.67-31.89-10.97-52.18l1.65-31.5c-1.19-10.66-14.26-7.3-21.74-8.26-3.13-.4-5.49-3.01-9.07-3.02-4.54-.02-8.98,4.32-13.62,4.5-2.27.09-18.88-.29-20.24-.52-3.01-.53-5.68-3.64-8.26-3.89-3.53-.33-5.73,2.7-8.81,2.82-8.4.34-33.64-8.27-38.47-2.21-4.2,5.27,1.31,10.75,2.74,15.55,7.05,23.69,15.08,60.19,29.81,78.92Z"/>
    <path d="M1602.43,2202.57c3.11-.46,28.06,3.88,31.56,5.25,6.57,2.56,18.5,13.01,20.97,19.53.84,2.21,5.01,26.29,4.78,28.05s-5.76,16.48-6.86,18.74c-18.01,36.95-93.37,70.02-132.26,76.24-44.9,7.18-105.07,9.16-139.87-25.81-20.08-20.18-11.12-57.99,12.48-71.58,10.88-6.26,13.57-2.13,22.63-2.74,3.37-.23,6.74-2.81,10.72-3.04,7.9-.45,17.22,4.19,24.08,4.44,6.01.22,11.46-3.48,16.45-4.28,28.42-4.57,54.31-10.08,78.8-24.7,13.92-8.31,31.96-10.48,46.81-14.69,2.6-.74,4.64-4.65,9.71-5.4Z"/>
  </g>
</svg>